{"title":"sirina i epanastasi tou laou part1","uid":7852668,"size":300640671,"categoryP":"porn","categoryS":"movies","magnet":"?xt=urn:btih:0e1fb3867af6349b09d2ce643201ffdd2d90eec5&amp;dn=sirina+i+epanastasi+tou+laou+part1+&amp;tr=udp%3A%2F%2Ftracker.openbittorrent.com%3A80&amp;tr=udp%3A%2F%2Fopen.demonii.com%3A1337&amp;tr=udp%3A%2F%2Ftracker.coppersurfer.tk%3A6969&amp;tr=udp%3A%2F%2Fexodus.desync.com%3A6969","seeders":3,"leechers":0,"uploader":"AnorthosisFamagusta","files":1,"time":1353658756,"description":"General\nComplete name                  : F:internet download managerVTS_03_2.mp4\nFormat                         : MPEG-4\nFormat profile                 : Base Media\nCodec ID                       : isom\nFile size                      : 287 MiB\nDuration                       : 32mn 27s\nOverall bit rate mode          : Variable\nOverall bit rate               : 1 235 Kbps\n\nVideo\nID                             : 1\nFormat                         : MPEG-4 Visual\nFormat profile                 : Simple@L1\nFormat settings, BVOP          : No\nFormat settings, QPel          : No\nFormat settings, GMC           : No warppoints\nFormat settings, Matrix        : Default (H.263)\nCodec ID                       : 20\nDuration                       : 32mn 27s\nBit rate                       : 1 103 Kbps\nWidth                          : 720 pixels\nHeight                         : 576 pixels\nDisplay aspect ratio           : 16:9\nFrame rate mode                : Constant\nFrame rate                     : 25.000 fps\nStandard                       : PAL\nColor space                    : YUV\nChroma subsampling             : 4:2:0\nBit depth                      : 8 bits\nScan type                      : Progressive\nCompression mode               : Lossy\nBits/(Pixel*Frame)             : 0.106\nStream size                    : 256 MiB (89%)\nWriting library                : Lavc51.54.0\n\nAudio\nID                             : 2\nFormat                         : AAC\nFormat/Info                    : Advanced Audio Codec\nFormat profile                 : LC\nCodec ID                       : 40\nDuration                       : 32mn 26s\nBit rate mode                  : Variable\nBit rate                       : 128 Kbps\nChannel(s)                     : 2 channels\nChannel positions              : Front: L R\nSampling rate                  : 48.0 KHz\nCompression mode               : Lossy\nStream size                    : 29.7 MiB (10%)\n\n","torrent":{"xt":"urn:btih:0e1fb3867af6349b09d2ce643201ffdd2d90eec5","amp;dn":"sirina+i+epanastasi+tou+laou+part1+","amp;tr":["udp%3A%2F%2Ftracker.openbittorrent.com%3A80","udp%3A%2F%2Fopen.demonii.com%3A1337","udp%3A%2F%2Ftracker.coppersurfer.tk%3A6969","udp%3A%2F%2Fexodus.desync.com%3A6969"],"infoHash":"0e1fb3867af6349b09d2ce643201ffdd2d90eec5","infoHashBuffer":{"type":"Buffer","data":[14,31,179,134,122,246,52,155,9,210,206,100,50,1,255,221,45,144,238,197]},"announce":[],"urlList":[]}}